<svg width="25" height="25" viewBox="0 0 25 25" fill="none" xmlns="http://www.w3.org/2000/svg">
    <path d="M23.3119 7.89627C23.3119 8.2683 23.1817 8.58452 22.9213 8.84494L12.8209 18.9454L10.9235 20.8427C10.6631 21.1031 10.3469 21.2333 9.97488 21.2333C9.60286 21.2333 9.28664 21.1031 9.02622 20.8427L7.1289 18.9454L2.07867 13.8952C1.81826 13.6347 1.68805 13.3185 1.68805 12.9465C1.68805 12.5745 1.81826 12.2583 2.07867 11.9978L3.976 10.1005C4.23641 9.8401 4.55263 9.70989 4.92466 9.70989C5.29668 9.70989 5.6129 9.8401 5.87332 10.1005L9.97488 14.216L19.1267 5.05029C19.3871 4.78988 19.7033 4.65967 20.0753 4.65967C20.4473 4.65967 20.7636 4.78988 21.024 5.05029L22.9213 6.94761C23.1817 7.20803 23.3119 7.52425 23.3119 7.89627Z" fill="#079B42"/>
</svg>
